<?xml version="1.0" encoding="utf-8"?>
<!-- Generator: Adobe Illustrator 24.0.3, SVG Export Plug-In . SVG Version: 6.00 Build 0)  -->
<svg version="1.1" id="Layer_1" xmlns="http://www.w3.org/2000/svg" xmlns:xlink="http://www.w3.org/1999/xlink" x="0px" y="0px"
	 viewBox="0 0 56.5 40" style="enable-background:new 0 0 56.5 40;" xml:space="preserve">
<style type="text/css">
	.st0{fill:#645A53;}
	.st1{fill:none;stroke:#DCDACB;}
</style>
<path class="st0" d="M27.8,23.2c0-1.8-0.8-3-3.3-3.3c2-0.6,2.6-1.9,2.6-3.5c0-2.6-2-3.7-4.9-3.7H18v14.5h4.5
	C25.7,27.2,27.8,26.1,27.8,23.2z M19.9,19.1v-4.9h1.9c2.2,0,3.4,0.7,3.4,2.5c0,1.8-1,2.4-3.1,2.4H19.9z M19.9,25.6v-4.9h2.2
	c2.3,0,3.7,0.6,3.7,2.3c0,1.9-1.1,2.5-3.5,2.5H19.9z"/>
<path class="st0" d="M30.5,27.2h1.8V11.7h-1.8V27.2z"/>
<path class="st0" d="M39.3,27.4c3,0,4.8-2.1,4.8-5.3c0-3.3-1.7-5.3-4.8-5.3c-2.9,0-4.8,2.2-4.8,5.3C34.6,25.5,36.4,27.4,39.3,27.4z
	 M39.4,25.8c-1.7,0-2.9-1.3-2.9-3.7c0-2.3,1.2-3.7,2.9-3.7c1.7,0,2.9,1.3,2.9,3.7C42.3,24.5,41.1,25.8,39.4,25.8z"/>
<path class="st0" d="M54.7,25.6v-8.5h-1l-0.3,0.5c-0.8-0.5-1.8-0.7-2.8-0.7c-2.9,0-5,1.9-5,5.1c0,3.3,1.8,5,4.6,5
	c1.1,0,2-0.3,2.7-0.8v0.1c0,2.7-0.9,3.5-2.9,3.5c-1.2,0-2.3-0.3-3.6-1.1l0.3,2c1,0.5,2.2,0.7,3.2,0.7C52.7,31.3,54.7,30.4,54.7,25.6
	z M47.4,21.9c0-2.2,1.2-3.4,3.2-3.4c1,0,1.6,0.2,2.3,0.6v5.3c-0.8,0.7-1.4,0.9-2.4,0.9C48.6,25.3,47.4,24,47.4,21.9z"/>
<line class="st1" x1="0.6" y1="-0.1" x2="0.6" y2="39.9"/>
</svg>
